<svg viewBox="-10 40 200 200" xmlns="http://www.w3.org/2000/svg">
  <path fill="#9620C6" d="M36.5,-65.2C44.6,-58.7,46.3,-43.2,54.9,-30.9C63.5,-18.5,78.9,-9.3,81.2,1.4C83.6,12,72.9,23.9,61.5,31.4C50.1,38.9,38,41.9,27.7,51.7C17.3,61.6,8.7,78.1,-2.5,82.4C-13.6,86.7,-27.2,78.7,-41.2,71C-55.2,63.3,-69.6,55.9,-74.7,44.1C-79.9,32.3,-75.8,16.2,-69.6,3.6C-63.5,-9,-55.2,-18.1,-50.3,-30.3C-45.4,-42.6,-43.9,-58,-36.1,-64.7C-28.3,-71.4,-14.1,-69.3,0.1,-69.4C14.3,-69.5,28.5,-71.8,36.5,-65.2Z" transform="translate(100 100)" />
</svg>